<?xml version="1.0" encoding="UTF-8"?>
<svg version="1.1" xmlns="http://www.w3.org/2000/svg" width="1024" height="1024">
<path d="M0 0 C12.43709529 7.19454467 23.31078252 18.28292835 30 31 C30.68449219 32.28583984 30.68449219 32.28583984 31.3828125 33.59765625 C36.77578606 44.56121626 41.94877057 58.85473119 38.02954102 71.00976562 C36.66689132 74.2349841 35.18230668 77.36422438 33.625 80.5 C33.0791626 81.64146484 32.5333252 82.78292969 31.97094727 83.95898438 C28.78624899 90.56098947 25.42002888 97.05147603 21.9375 103.5 C5.61052496 133.8309395 -1.89919742 165.43857983 -8 199 C-5.69 198.67 -3.38 198.34 -1 198 C-0.87995605 197.40276123 -0.75991211 196.80552246 -0.63623047 196.19018555 C1.49955538 185.68304341 3.70450523 175.23207306 6.9375 165 C7.1535791 164.30994873 7.3696582 163.61989746 7.59228516 162.90893555 C11.91734602 149.67326283 17.68000966 137.00566788 23.625 124.4375 C23.97216064 123.7007605 24.31932129 122.964021 24.67700195 122.20495605 C30.2929511 110.3081633 36.24348444 98.66561949 42.77148438 87.23925781 C43.92520368 85.13633383 44.95497607 83.01610491 45.953125 80.8359375 C50.87458432 70.41543277 57.63345668 66.89284638 68 63 C69.07894531 62.54882812 70.15789062 62.09765625 71.26953125 61.6328125 C82.75522615 57.52572061 99.23961287 56.57261818 111 60 C110.52179909 75.51761954 106.66077792 89.29310781 99.88037109 103.19018555 C99.02187188 104.95503709 98.23247042 106.75297585 97.4453125 108.55078125 C94.50385289 113.56252177 89.28836269 115.90502792 84.375 118.6875 C82.28603231 119.91503265 80.19881052 121.1455409 78.11328125 122.37890625 C77.07768066 122.98750488 76.04208008 123.59610352 74.97509766 124.22314453 C67.7870168 128.51617362 60.86767519 133.21543396 54 138 C53.31357422 138.47614746 52.62714844 138.95229492 51.91992188 139.44287109 C32.17925549 153.27537121 14.26175656 170.20048809 8.93701172 194.69042969 C8.76048065 195.4982489 8.58394958 196.30606812 8.40206909 197.1383667 C8.26938629 197.75270569 8.13670349 198.36704468 8 199 C9.1873877 198.97905273 10.37477539 198.95810547 11.59814453 198.93652344 C55.81949621 198.22482484 55.81949621 198.22482484 73 203 C73.71462402 203.18723633 74.42924805 203.37447266 75.16552734 203.56738281 C96.38195671 209.20626856 116.58631934 219.3791983 133 234 C134.34964844 235.13501953 134.34964844 235.13501953 135.7265625 236.29296875 C149.60095402 248.27184481 159.25038624 263.38935012 167.5 279.625 C167.8508667 280.31255371 168.2017334 281.00010742 168.56323242 281.70849609 C170.02215587 284.65577903 171 286.66731292 171 290 C122.45265601 299.43357528 73.89530269 308.81310942 25.3125 318.0625 C24.2238905 318.269781 23.13528099 318.477062 22.01368332 318.69062424 C-2.79293016 323.41359326 -27.60290032 328.11852921 -52.41796875 332.796875 C-54.47631415 333.18504887 -56.53465868 333.57322734 -58.59300232 333.96141052 C-67.26313976 335.59625166 -75.9334639 337.230063 -84.60486984 338.85816383 C-103.01923772 342.31667023 -121.41436252 345.84997925 -139.78199768 349.54904175 C-151.44701344 351.8976849 -163.12425736 354.175019 -174.81860352 356.37329102 C-177.91981565 356.95772396 -181.01942775 357.55025035 -184.11914062 358.14257812 C-186.12751238 358.52132039 -188.13597221 358.89959595 -190.14453125 359.27734375 C-191.50829643 359.5397007 -191.50829643 359.5397007 -192.89961243 359.80735779 C-197.33249563 360.63158232 -201.4667584 361.20472704 -206 361 C-209.33271089 337.42913345 -205.74711031 314.34520996 -198 292 C-197.76410156 291.31711914 -197.52820313 290.63423828 -197.28515625 289.93066406 C-192.23947043 275.67018761 -185.0411303 262.35420119 -175 251 C-174.2678125 250.15953125 -173.535625 249.3190625 -172.78125 248.453125 C-170.55401039 245.93603913 -168.28740353 243.46241839 -166 241 C-165.39929688 240.33355469 -164.79859375 239.66710937 -164.1796875 238.98046875 C-146.65925938 220.3602735 -122.6122781 209.95054375 -98.4375 203.125 C-97.76106445 202.93397705 -97.08462891 202.7429541 -96.38769531 202.54614258 C-94.26715083 201.98006503 -92.1423008 201.47724751 -90 201 C-89.16903809 200.81163574 -88.33807617 200.62327148 -87.48193359 200.42919922 C-77.93629117 198.54398882 -68.43203979 198.77622269 -58.75 198.875 C-57.02214063 198.88505512 -55.29427557 198.89417647 -53.56640625 198.90234375 C-49.37746077 198.92414461 -45.18879506 198.9585331 -41 199 C-41.93824572 196.59843008 -42.8816614 194.1991111 -43.828125 191.80078125 C-44.09125488 191.12567505 -44.35438477 190.45056885 -44.62548828 189.75500488 C-54.23171825 165.49557951 -79.51320413 152.38513821 -102 142 C-105.24252393 140.66800133 -108.51736107 139.44495587 -111.8125 138.25 C-119.08628993 135.60260972 -124.20814782 132.18366092 -130 127 C-132.15741737 125.3396215 -134.32225957 123.69549098 -136.5 122.0625 C-142.28478713 117.66677806 -147.68941643 112.96293815 -153 108 C-151.77696064 104.33088191 -150.98486624 104.12803207 -147.625 102.4375 C-135.06092097 96.51239455 -119.19223376 96.143395 -105.94946289 100.17788696 C-99.67661086 102.82322761 -95.13862396 108.59818003 -90.625 113.5 C-89.51969512 114.64850369 -88.41162795 115.79435555 -87.30078125 116.9375 C-81.51390412 122.94619721 -76.08091269 129.17126575 -70.86376953 135.68115234 C-69.38686405 137.51867504 -67.8876552 139.30681284 -66.3203125 141.06640625 C-52.85414779 156.37757929 -39 177.8557803 -39 199 C-34.545 198.01 -34.545 198.01 -30 197 C-33.11465527 183.16404395 -37.65925571 170.68425264 -44 158 C-44.31807617 157.35724121 -44.63615234 156.71448242 -44.96386719 156.05224609 C-53.85225319 138.43402367 -67.63164834 122.96533795 -81.73828125 109.31835938 C-83.19110722 107.91146584 -84.59978324 106.45926205 -86 105 C-86 104.34 -86 103.68 -86 103 C-86.66 103 -87.32 103 -88 103 C-95.30567962 96.25629573 -96.62945487 85.38702309 -97.10986328 75.80981445 C-97.16952705 73.41398805 -97.18558583 71.02153918 -97.1875 68.625 C-97.19974609 67.82578125 -97.21199219 67.0265625 -97.22460938 66.203125 C-97.2383014 60.56201049 -96.44045364 55.45005631 -95 50 C-80.35905055 52.8155672 -69.00943764 59.11018193 -58 69 C-56.53433594 70.23399536 -56.53433594 70.23399536 -55.0390625 71.49291992 C-46.16870181 79.29373949 -43.24917344 86.81166217 -40.625 98.125 C-40.22052109 99.73269046 -39.81267612 101.33953748 -39.40161133 102.94555664 C-38.39966078 106.90239197 -37.44725553 110.86907271 -36.51239014 114.84222412 C-35.77689186 117.93955236 -34.99821597 121.02577666 -34.22265625 124.11328125 C-28.93518685 145.60675479 -23.69974708 168.34174665 -23.9375 190.5625 C-23.94201172 191.38041016 -23.94652344 192.19832031 -23.95117188 193.04101562 C-23.96278802 195.02737647 -23.98071552 197.0136988 -24 199 C-22.02 199 -20.04 199 -18 199 C-17.78797783 185.30499867 -17.82506854 171.66672419 -18.8125 158 C-18.88259277 156.97801514 -18.95268555 155.95603027 -19.02490234 154.90307617 C-20.31131516 138.65088076 -23.52073925 122.80161919 -27.27905273 106.96411133 C-27.94073884 104.1738421 -28.59124878 101.3811383 -29.24023438 98.58789062 C-31.08144032 90.72526286 -32.97168527 82.94821592 -35.37890625 75.23828125 C-38.18615868 65.55829755 -36.01799072 58.92288363 -32 49.9375 C-31.39442261 48.56331909 -31.39442261 48.56331909 -30.77661133 47.16137695 C-22.89915123 29.60270351 -12.64172072 14.48547906 0 0 Z M-136 248 C-136.8146875 248.64066406 -137.629375 249.28132813 -138.46875 249.94140625 C-154.2724149 263.11946227 -167.30907948 283.69993712 -171 304 C-170.58473523 306.15816755 -170.58473523 306.15816755 -170 308 C-169.38253906 307.04480469 -168.76507813 306.08960938 -168.12890625 305.10546875 C-160.35942019 293.19844146 -151.68676484 282.41784143 -142 272 C-141.30003906 271.22269531 -140.60007812 270.44539063 -139.87890625 269.64453125 C-123.11092189 251.83036416 -95.76390602 232.67431939 -71 229 C-71 228.67 -71 228.34 -71 228 C-95.56259806 227.06851291 -116.69742514 232.08759256 -136 248 Z M-172 308 C-171 310 -171 310 -171 310 Z " fill="#E91E29" transform="translate(527,136)"/>
<path d="M0 0 C0.67016602 2.20556641 0.67016602 2.20556641 1.25390625 5.1015625 C1.46853516 6.14957031 1.68316406 7.19757813 1.90429688 8.27734375 C2.12150391 9.38207031 2.33871094 10.48679687 2.5625 11.625 C2.78357422 12.70652344 3.00464844 13.78804688 3.23242188 14.90234375 C4.87562132 23.03394702 6.12515456 30.94026082 6.31640625 39.25 C6.33718735 40.02577393 6.35796844 40.80154785 6.37937927 41.60083008 C6.42240568 43.23790629 6.46347474 44.87503499 6.50268555 46.51220703 C6.56166596 48.96531078 6.62696436 51.41818069 6.69335938 53.87109375 C6.8170409 58.58039114 6.91528786 63.28985197 7 68 C7.01399841 68.71414063 7.02799683 69.42828125 7.04241943 70.1640625 C7.45661176 93.40780125 -0.4027112 110.15861431 -16 127 C-16.98419922 128.08861328 -16.98419922 128.08861328 -17.98828125 129.19921875 C-26.7760311 138.47622234 -37.68034923 146.18399281 -48.22412109 153.34741211 C-50.68932137 155.03899592 -53.00309025 156.81433831 -55.29052734 158.73779297 C-64.43548861 165.96398179 -71.78813383 166.81725385 -83.21231079 165.54319763 C-86.73094698 165.08678812 -90.23906301 164.57452149 -93.75 164.0625 C-96.28961669 163.73870793 -98.8300118 163.42097129 -101.37109375 163.10888672 C-106.65616316 162.45140923 -111.9357815 161.76412885 -117.21289062 161.04638672 C-127.94045326 159.59328839 -138.68684269 158.30743932 -149.43817139 157.04406738 C-151.82648383 156.76307019 -154.21454434 156.47992388 -156.60235596 156.19470215 C-204.92369651 150.4350315 -253.49816642 146.58523463 -302 142.6875 C-302.96490356 142.60920959 -303.92980713 142.53091919 -304.9239502 142.45025635 C-314.19441721 141.70097773 -323.4619046 141.00919579 -332.74920654 140.5040741 C-336.5598627 140.29559637 -340.36921643 140.0668888 -344.17871094 139.83828735 C-346.75926838 139.69397218 -349.33955436 139.5843927 -351.921875 139.47729492 C-361.87056004 138.95313827 -368.79394986 137.09759 -377 131 C-377.93328125 130.30712891 -378.8665625 129.61425781 -379.828125 128.90039062 C-382.29713154 127.0117559 -384.65610788 125.04119052 -387 123 C-387.62519531 122.47019531 -388.25039063 121.94039062 -388.89453125 121.39453125 C-398.76195128 112.37352649 -404.96615964 99.51820189 -406.26953125 86.2578125 C-406.33401385 82.68195904 -405.93858084 79.43383235 -405 76 C-380.84081304 71.35672959 -356.66801938 66.79921208 -332.46118164 62.41040039 C-319.81318124 60.10980284 -307.19095305 57.68964895 -294.57401466 55.22565269 C-282.79115465 52.92486178 -271.00259628 50.65662653 -259.20703125 48.421875 C-258.42403215 48.27350126 -257.64103306 48.12512753 -256.83430672 47.97225761 C-252.81799128 47.21135089 -248.80156038 46.45105575 -244.7850647 45.69110107 C-236.13741473 44.05475513 -227.4904904 42.4145822 -218.84375 40.7734375 C-217.98336435 40.61014072 -217.12297871 40.44684395 -216.23652077 40.27859879 C-198.50398327 36.91217861 -180.78079411 33.4983916 -163.06054688 30.06787109 C-150.37663454 27.61305639 -137.69021156 25.1720106 -125 22.75 C-123.91051906 22.54205748 -123.91051906 22.54205748 -122.7990284 22.32991409 C-119.11068376 21.62599673 -115.42230693 20.92224815 -111.73391724 20.21856689 C-90.60598739 16.18763751 -69.481898 12.14002251 -48.375 8 C-46.52352298 7.63734887 -44.67204197 7.27471811 -42.82055664 6.91210938 C-35.71438119 5.51938804 -28.60887768 4.12373931 -21.50759888 2.70623779 C-18.42257238 2.09157753 -15.33612214 1.48413168 -12.25 0.875 C-11.20118652 0.66230469 -10.15237305 0.44960938 -9.07177734 0.23046875 C-7.68273193 -0.04216797 -7.68273193 -0.04216797 -6.265625 -0.3203125 C-5.47961914 -0.47773926 -4.69361328 -0.63516602 -3.88378906 -0.79736328 C-2 -1 -2 -1 0 0 Z " fill="#E91B26" transform="translate(711,437)"/>
<path d="M0 0 C14.33378525 0.60442087 28.62106422 1.49936467 42.921875 2.63671875 C44.97754995 2.79815509 47.03323462 2.95946781 49.08892822 3.1206665 C55.64313663 3.6365228 62.19662394 4.16118901 68.75 4.6875 C70.43141083 4.82222654 70.43141083 4.82222654 72.14678955 4.95967484 C107.49634089 7.79409647 142.77284401 10.89018359 178 15 C179.48325943 15.17200076 180.96653664 15.34384832 182.4498291 15.51556396 C216.65905883 19.47588656 250.85474479 23.51807064 285 28 C284.24461778 31.44941231 283.28391122 33.11840558 280.82421875 35.6875 C279.83808594 36.72704834 279.83808594 36.72704834 278.83203125 37.78759766 C277.77048828 38.88273682 277.77048828 38.88273682 276.6875 40 C275.6046875 41.13187744 275.6046875 41.13187744 274.5 42.28662109 C272.34290168 44.53391667 270.17424543 46.76930048 268 49 C267.10788818 49.91700684 267.10788818 49.91700684 266.19775391 50.85253906 C260.35505807 56.83554275 254.39506728 62.60488869 248 68 C247.10539063 68.78375 246.21078125 69.5675 245.2890625 70.375 C234.9441817 79.38058073 223.87546993 87.42495883 212.69140625 95.3515625 C188.00922878 112.92667327 170.87154521 138.08755274 165 168 C164.3842673 172.86411582 164.00350367 177.73745954 163.625 182.625 C160.11873463 223.40261432 149.91943175 265.41186293 117.3984375 292.85546875 C116.93695313 293.23316406 116.47546875 293.61085938 116 294 C115.34 293.67 114.68 293.34 114 293 C114.43570313 292.19820312 114.87140625 291.39640625 115.3203125 290.5703125 C127.27986147 267.73844628 132.43482597 242.92858223 132.20581055 217.24316406 C132.1873245 215.10469786 132.18530364 212.96666369 132.18554688 210.828125 C132.16623023 203.50236701 131.95174684 196.27007539 131 189 C130.42668945 189.63446045 130.42668945 189.63446045 129.84179688 190.28173828 C128.06831703 192.23608746 126.28427538 194.18050398 124.5 196.125 C123.89929688 196.79015625 123.29859375 197.4553125 122.6796875 198.140625 C118.48567722 202.69157233 114.07683793 206.46255806 109 210 C108.34 209.67 107.68 209.34 107 209 C107.44730469 208.34515625 107.89460938 207.6903125 108.35546875 207.015625 C114.65574995 197.50475274 118.61148477 187.83435561 121.8125 176.9375 C122.03180176 176.21812256 122.25110352 175.49874512 122.47705078 174.75756836 C125.48996931 163.9618849 123.86471617 154.81020198 120.4375 144.3125 C120.07833496 143.17852783 119.71916992 142.04455566 119.34912109 140.8762207 C116.45909814 131.95017838 112.98870248 123.48407797 109 115 C108.31955404 113.33891134 107.64712287 111.67435188 107 110 C107.56203125 110.0721875 108.1240625 110.144375 108.703125 110.21875 C115.26573345 110.94345523 121.77950061 111.11064636 128.375 111.125 C129.24286133 111.12951172 130.11072266 111.13402344 131.00488281 111.13867188 C131.83600586 111.13673828 132.66712891 111.13480469 133.5234375 111.1328125 C134.635979 111.13112061 134.635979 111.13112061 135.77099609 111.12939453 C138.25116652 110.98541969 140.57699684 110.53660967 143 110 C142.24605957 109.79955078 141.49211914 109.59910156 140.71533203 109.39257812 C90.94418977 96.02733304 45.47789182 66.30721056 15 24 C14.42040527 23.20529297 14.42040527 23.20529297 13.82910156 22.39453125 C0 3.42531699 0 3.42531699 0 0 Z " fill="#E91E29" transform="translate(367,589)"/>
<path d="M0 0 C2.27474277 3.41211416 2.56629644 5.6568529 3.125 9.6875 C3.37636719 11.45673828 3.37636719 11.45673828 3.6328125 13.26171875 C3.75398438 14.16535156 3.87515625 15.06898438 4 16 C9.445 15.01 9.445 15.01 15 14 C15 14.99 15 15.98 15 17 C14.41197601 17.01030746 13.82395203 17.02061493 13.21810913 17.03123474 C7.08589224 17.13959832 0.95381345 17.25417108 -5.17822266 17.37231445 C-7.46530258 17.41556777 -9.75241279 17.45724947 -12.03955078 17.49731445 C-15.33114746 17.55524999 -18.62259301 17.6188771 -21.9140625 17.68359375 C-22.93303619 17.70030624 -23.95200989 17.71701874 -25.00186157 17.73423767 C-29.77239729 17.8332956 -34.30386251 18.06899822 -39 19 C-41.67810075 19.11196073 -44.31732686 19.04625299 -47 19 C-47 18.67 -47 18.34 -47 18 C-36.56994279 15.68133816 -26.36296232 15.76672531 -15.75 15.875 C-14.02214063 15.88505512 -12.29427557 15.89417647 -10.56640625 15.90234375 C-6.37746077 15.92414461 -2.18879506 15.9585331 2 16 C1.65775391 14.95199219 1.65775391 14.95199219 1.30859375 13.8828125 C1.02113281 12.97273438 0.73367188 12.06265625 0.4375 11.125 C0.14746094 10.22007812 -0.14257812 9.31515625 -0.44140625 8.3828125 C-1 6 -1 6 0 4 C0 2.68 0 1.36 0 0 Z " fill="#ED6269" transform="translate(484,319)"/>
<path d="M0 0 C0.66 0.33 1.32 0.66 2 1 C0.0421736 3.12546902 -1.91623817 5.25039334 -3.875 7.375 C-4.43058594 7.97828125 -4.98617188 8.5815625 -5.55859375 9.203125 C-6.09355469 9.78320312 -6.62851562 10.36328125 -7.1796875 10.9609375 C-7.67194824 11.49509277 -8.16420898 12.02924805 -8.67138672 12.57958984 C-9.75815762 13.74144818 -10.87505872 14.87505872 -12 16 C-12.99 15.67 -13.98 15.34 -15 15 C-10.05 10.05 -5.1 5.1 0 0 Z " fill="#EC4D55" transform="translate(395,397)"/>
<path d="M0 0 C1.32 1.65 2.64 3.3 4 5 C1.33333333 7.66666667 -1.33333333 10.33333333 -4 13 C-4.66 12.67 -5.32 12.34 -6 12 C-4.02 8.04 -2.04 4.08 0 0 Z " fill="#F5515A" transform="translate(487,870)"/>
<path d="M0 0 C2.27474277 3.41211416 2.56629644 5.6568529 3.125 9.6875 C3.29257812 10.86699219 3.46015625 12.04648437 3.6328125 13.26171875 C3.75398438 14.16535156 3.87515625 15.06898438 4 16 C3.34 16 2.68 16 2 16 C1.47026689 14.37787941 0.95146893 12.75218416 0.4375 11.125 C0.14746094 10.22007812 -0.14257812 9.31515625 -0.44140625 8.3828125 C-1 6 -1 6 0 4 C0 2.68 0 1.36 0 0 Z " fill="#ED777E" transform="translate(484,319)"/>
<path d="M0 0 C1.65 0.33 3.3 0.66 5 1 C2.4837822 3.60608273 -0.05134359 5.89381685 -3 8 C-3.66 7.67 -4.32 7.34 -5 7 C-3.35 4.69 -1.7 2.38 0 0 Z " fill="#F25A64" transform="translate(479,791)"/>
<path d="M0 0 C2.31 0.33 4.62 0.66 7 1 C7 1.33 7 1.66 7 2 C5.41913952 2.36504603 3.83516093 2.71660506 2.25 3.0625 C1.36828125 3.25972656 0.4865625 3.45695312 -0.421875 3.66015625 C-2.98679028 3.99825872 -4.57091639 3.81158635 -7 3 C-6.34 3 -5.68 3 -5 3 C-5 2.34 -5 1.68 -5 1 C-3.35 1.33 -1.7 1.66 0 2 C0 1.34 0 0.68 0 0 Z " fill="#ED6972" transform="translate(389,482)"/>
<path d="M0 0 C-0.66 0 -1.32 0 -2 0 C-2 0.66 -2 1.32 -2 2 C-4.97 1.505 -4.97 1.505 -8 1 C-8.33 1.66 -8.66 2.32 -9 3 C-11.97 2.505 -11.97 2.505 -15 2 C-15 1.67 -15 1.34 -15 1 C-13.25215171 0.63536268 -11.50159498 0.2836922 -9.75 -0.0625 C-8.28820312 -0.35833984 -8.28820312 -0.35833984 -6.796875 -0.66015625 C-4.131881 -0.98397535 -2.51128277 -0.85503199 0 0 Z " fill="#F17279" transform="translate(666,446)"/>
<path d="M0 0 C3.63 0.33 7.26 0.66 11 1 C11 1.33 11 1.66 11 2 C9.02 2 7.04 2 5 2 C4.67 2.66 4.34 3.32 4 4 C3.01 3.67 2.02 3.34 1 3 C0.67 2.01 0.34 1.02 0 0 Z " fill="#F45E65" transform="translate(474,699)"/>
<path d="M0 0 C2.31 0 4.62 0 7 0 C6.625 1.9375 6.625 1.9375 6 4 C5.01 4.495 5.01 4.495 4 5 C3.67 4.01 3.34 3.02 3 2 C2.01 1.34 1.02 0.68 0 0 Z " fill="#F05B69" transform="translate(645,617)"/>
</svg>
